<svg width="153" height="21" viewBox="0 0 153 21" fill="none" xmlns="http://www.w3.org/2000/svg">
<path fill-rule="evenodd" clip-rule="evenodd" d="M7.65484 3.72059C6.5025 3.72059 4.8563 4.20588 4.8563 5.58088C4.8563 7.01335 6.37842 7.45346 8.13897 7.96252C10.5535 8.66068 13.4166 9.48852 13.4166 13.1838C13.4166 17.3088 10.1241 19.25 6.25557 19.25C3.86858 19.25 1.72851 18.6029 0 16.9853L2.79854 13.9118C3.70396 14.9632 5.02092 15.6103 6.42019 15.6103C7.81946 15.6103 9.30105 14.9632 9.30105 13.6691C9.30105 12.2206 7.71467 11.728 5.89481 11.1628C3.44675 10.4026 0.576171 9.51121 0.576171 5.98529C0.576171 2.02206 4.0332 0 7.73715 0C9.79491 0 11.8527 0.566176 13.4166 1.94118L10.618 4.93382C9.95953 4.125 8.64256 3.72059 7.65484 3.72059ZM32.0186 3.72059C28.8909 3.72059 26.5862 6.22794 26.5862 9.625C26.5862 13.0221 28.8909 15.5294 31.854 15.5294C33.5002 15.5294 34.8995 14.8015 35.7226 13.5882L39.1796 16.0956C37.6157 18.2794 34.9818 19.25 32.4302 19.25C26.5862 19.25 22.3884 15.5294 22.3884 9.625C22.3884 3.72059 26.5862 0 32.4302 0C34.4879 0 37.1219 0.727941 38.6858 2.66912L35.558 5.25735C34.7349 4.28676 33.5825 3.72059 32.0186 3.72059ZM56.9586 11L63.955 0.485294H59.0987L54.9009 7.36029L50.95 0.485294H45.8467L52.8431 11V18.8456H56.9586V11ZM83.9563 18.7647H72.2683V0.485294H76.3838V15.0441H83.9563V18.7647ZM93.2574 18.7647H104.945V15.0441H97.3729V0.485294H93.2574V18.7647ZM123.63 0.404412L131.779 18.7647H127.251L125.605 14.8824L124.206 11.4853L121.901 5.82353L119.597 11.4853L118.28 14.8824L116.716 18.7647H112.189L120.255 0.404412H123.63Z" fill="#372950"/>
<path d="M150.071 20.7833C151.86 20.1184 152.754 18.1234 152.103 16.2947C151.453 14.466 149.502 13.5517 147.714 14.2167C145.925 14.8816 145.031 16.8766 145.682 18.7053C146.251 20.534 148.283 21.4483 150.071 20.7833Z" fill="#B094C4"/>
</svg>
